<mxfile host="app.diagrams.net" modified="2023-11-30T01:16:22.388Z" agent="Mozilla/5.0 (Windows NT 10.0; Win64; x64) AppleWebKit/537.36 (KHTML, like Gecko) Chrome/119.0.0.0 Safari/537.36 Edg/119.0.0.0" etag="xQRNxa5O0OcXqlVgM-rA" version="22.1.5" type="github">
  <diagram name="第 1 页" id="aEMSDAUqm41HkrmTPTQu">
    <mxGraphModel dx="1186" dy="975" grid="0" gridSize="10" guides="1" tooltips="1" connect="1" arrows="1" fold="1" page="0" pageScale="1" pageWidth="827" pageHeight="1169" math="0" shadow="0">
      <root>
        <mxCell id="0" />
        <mxCell id="1" parent="0" />
        <mxCell id="PNi4up06ztXLm7VJfdX3-1" value="packagekitd" style="rounded=0;whiteSpace=wrap;html=1;sketch=1;hachureGap=4;jiggle=2;curveFitting=1;fontFamily=Architects Daughter;fontSource=https%3A%2F%2Ffonts.googleapis.com%2Fcss%3Ffamily%3DArchitects%2BDaughter;fontSize=20;" vertex="1" parent="1">
          <mxGeometry x="6" y="34" width="48" height="260" as="geometry" />
        </mxCell>
        <mxCell id="PNi4up06ztXLm7VJfdX3-2" value="frontend" style="rounded=1;whiteSpace=wrap;html=1;sketch=1;hachureGap=4;jiggle=2;curveFitting=1;fontFamily=Architects Daughter;fontSource=https%3A%2F%2Ffonts.googleapis.com%2Fcss%3Ffamily%3DArchitects%2BDaughter;fontSize=20;" vertex="1" parent="1">
          <mxGeometry x="-177" y="34" width="120" height="60" as="geometry" />
        </mxCell>
        <mxCell id="PNi4up06ztXLm7VJfdX3-3" value="frontend" style="rounded=1;whiteSpace=wrap;html=1;sketch=1;hachureGap=4;jiggle=2;curveFitting=1;fontFamily=Architects Daughter;fontSource=https%3A%2F%2Ffonts.googleapis.com%2Fcss%3Ffamily%3DArchitects%2BDaughter;fontSize=20;" vertex="1" parent="1">
          <mxGeometry x="-177" y="117" width="120" height="60" as="geometry" />
        </mxCell>
        <mxCell id="PNi4up06ztXLm7VJfdX3-4" value="frontend" style="rounded=1;whiteSpace=wrap;html=1;sketch=1;hachureGap=4;jiggle=2;curveFitting=1;fontFamily=Architects Daughter;fontSource=https%3A%2F%2Ffonts.googleapis.com%2Fcss%3Ffamily%3DArchitects%2BDaughter;fontSize=20;" vertex="1" parent="1">
          <mxGeometry x="-177" y="210" width="120" height="60" as="geometry" />
        </mxCell>
        <mxCell id="PNi4up06ztXLm7VJfdX3-5" style="edgeStyle=none;curved=1;rounded=0;sketch=1;hachureGap=4;jiggle=2;curveFitting=1;orthogonalLoop=1;jettySize=auto;html=1;entryX=0.002;entryY=0.173;entryDx=0;entryDy=0;entryPerimeter=0;fontFamily=Architects Daughter;fontSource=https%3A%2F%2Ffonts.googleapis.com%2Fcss%3Ffamily%3DArchitects%2BDaughter;fontSize=16;startSize=8;endSize=8;" edge="1" parent="1" source="PNi4up06ztXLm7VJfdX3-2" target="PNi4up06ztXLm7VJfdX3-1">
          <mxGeometry relative="1" as="geometry" />
        </mxCell>
        <mxCell id="PNi4up06ztXLm7VJfdX3-6" style="edgeStyle=none;curved=1;rounded=0;sketch=1;hachureGap=4;jiggle=2;curveFitting=1;orthogonalLoop=1;jettySize=auto;html=1;entryX=0.013;entryY=0.381;entryDx=0;entryDy=0;entryPerimeter=0;fontFamily=Architects Daughter;fontSource=https%3A%2F%2Ffonts.googleapis.com%2Fcss%3Ffamily%3DArchitects%2BDaughter;fontSize=16;startSize=8;endSize=8;" edge="1" parent="1" source="PNi4up06ztXLm7VJfdX3-3" target="PNi4up06ztXLm7VJfdX3-1">
          <mxGeometry relative="1" as="geometry" />
        </mxCell>
        <mxCell id="PNi4up06ztXLm7VJfdX3-7" style="edgeStyle=none;curved=1;rounded=0;sketch=1;hachureGap=4;jiggle=2;curveFitting=1;orthogonalLoop=1;jettySize=auto;html=1;entryX=0.018;entryY=0.692;entryDx=0;entryDy=0;entryPerimeter=0;fontFamily=Architects Daughter;fontSource=https%3A%2F%2Ffonts.googleapis.com%2Fcss%3Ffamily%3DArchitects%2BDaughter;fontSize=16;startSize=8;endSize=8;" edge="1" parent="1" source="PNi4up06ztXLm7VJfdX3-4" target="PNi4up06ztXLm7VJfdX3-1">
          <mxGeometry relative="1" as="geometry" />
        </mxCell>
        <mxCell id="PNi4up06ztXLm7VJfdX3-11" value="" style="edgeStyle=none;curved=1;rounded=0;sketch=1;hachureGap=4;jiggle=2;curveFitting=1;orthogonalLoop=1;jettySize=auto;html=1;fontFamily=Architects Daughter;fontSource=https%3A%2F%2Ffonts.googleapis.com%2Fcss%3Ffamily%3DArchitects%2BDaughter;fontSize=16;startSize=8;endSize=8;" edge="1" parent="1" source="PNi4up06ztXLm7VJfdX3-8" target="PNi4up06ztXLm7VJfdX3-10">
          <mxGeometry relative="1" as="geometry" />
        </mxCell>
        <mxCell id="PNi4up06ztXLm7VJfdX3-13" value="" style="edgeStyle=none;curved=1;rounded=0;sketch=1;hachureGap=4;jiggle=2;curveFitting=1;orthogonalLoop=1;jettySize=auto;html=1;fontFamily=Architects Daughter;fontSource=https%3A%2F%2Ffonts.googleapis.com%2Fcss%3Ffamily%3DArchitects%2BDaughter;fontSize=16;startSize=8;endSize=8;" edge="1" parent="1" source="PNi4up06ztXLm7VJfdX3-8" target="PNi4up06ztXLm7VJfdX3-10">
          <mxGeometry relative="1" as="geometry" />
        </mxCell>
        <mxCell id="PNi4up06ztXLm7VJfdX3-15" value="" style="edgeStyle=none;curved=1;rounded=0;sketch=1;hachureGap=4;jiggle=2;curveFitting=1;orthogonalLoop=1;jettySize=auto;html=1;fontFamily=Architects Daughter;fontSource=https%3A%2F%2Ffonts.googleapis.com%2Fcss%3Ffamily%3DArchitects%2BDaughter;fontSize=16;startSize=8;endSize=8;" edge="1" parent="1" source="PNi4up06ztXLm7VJfdX3-8" target="PNi4up06ztXLm7VJfdX3-14">
          <mxGeometry relative="1" as="geometry" />
        </mxCell>
        <mxCell id="PNi4up06ztXLm7VJfdX3-17" value="" style="edgeStyle=none;curved=1;rounded=0;sketch=1;hachureGap=4;jiggle=2;curveFitting=1;orthogonalLoop=1;jettySize=auto;html=1;fontFamily=Architects Daughter;fontSource=https%3A%2F%2Ffonts.googleapis.com%2Fcss%3Ffamily%3DArchitects%2BDaughter;fontSize=16;startSize=8;endSize=8;" edge="1" parent="1" target="PNi4up06ztXLm7VJfdX3-16">
          <mxGeometry relative="1" as="geometry">
            <mxPoint x="103" y="109.99571428571421" as="sourcePoint" />
          </mxGeometry>
        </mxCell>
        <mxCell id="PNi4up06ztXLm7VJfdX3-8" value="plugins" style="rounded=1;whiteSpace=wrap;html=1;sketch=1;hachureGap=4;jiggle=2;curveFitting=1;fontFamily=Architects Daughter;fontSource=https%3A%2F%2Ffonts.googleapis.com%2Fcss%3Ffamily%3DArchitects%2BDaughter;fontSize=20;" vertex="1" parent="1">
          <mxGeometry x="38" y="54" width="70" height="84" as="geometry" />
        </mxCell>
        <mxCell id="PNi4up06ztXLm7VJfdX3-10" value="dnf" style="whiteSpace=wrap;html=1;fontSize=20;fontFamily=Architects Daughter;rounded=1;sketch=1;hachureGap=4;jiggle=2;curveFitting=1;fontSource=https%3A%2F%2Ffonts.googleapis.com%2Fcss%3Ffamily%3DArchitects%2BDaughter;" vertex="1" parent="1">
          <mxGeometry x="152" y="44" width="75" height="17" as="geometry" />
        </mxCell>
        <mxCell id="PNi4up06ztXLm7VJfdX3-14" value="apt" style="whiteSpace=wrap;html=1;fontSize=20;fontFamily=Architects Daughter;rounded=1;sketch=1;hachureGap=4;jiggle=2;curveFitting=1;fontSource=https%3A%2F%2Ffonts.googleapis.com%2Fcss%3Ffamily%3DArchitects%2BDaughter;" vertex="1" parent="1">
          <mxGeometry x="153" y="88" width="73" height="22" as="geometry" />
        </mxCell>
        <mxCell id="PNi4up06ztXLm7VJfdX3-16" value="pacman" style="whiteSpace=wrap;html=1;fontSize=20;fontFamily=Architects Daughter;rounded=1;sketch=1;hachureGap=4;jiggle=2;curveFitting=1;fontSource=https%3A%2F%2Ffonts.googleapis.com%2Fcss%3Ffamily%3DArchitects%2BDaughter;" vertex="1" parent="1">
          <mxGeometry x="155" y="137.71" width="71" height="21.29" as="geometry" />
        </mxCell>
        <mxCell id="PNi4up06ztXLm7VJfdX3-18" value="PolicyKit&amp;nbsp;" style="rounded=1;whiteSpace=wrap;html=1;sketch=1;hachureGap=4;jiggle=2;curveFitting=1;fontFamily=Architects Daughter;fontSource=https%3A%2F%2Ffonts.googleapis.com%2Fcss%3Ffamily%3DArchitects%2BDaughter;fontSize=20;" vertex="1" parent="1">
          <mxGeometry x="17" y="-76" width="120" height="60" as="geometry" />
        </mxCell>
        <mxCell id="PNi4up06ztXLm7VJfdX3-19" style="edgeStyle=none;curved=1;rounded=0;sketch=1;hachureGap=4;jiggle=2;curveFitting=1;orthogonalLoop=1;jettySize=auto;html=1;entryX=0.408;entryY=1.017;entryDx=0;entryDy=0;entryPerimeter=0;fontFamily=Architects Daughter;fontSource=https%3A%2F%2Ffonts.googleapis.com%2Fcss%3Ffamily%3DArchitects%2BDaughter;fontSize=16;startSize=8;endSize=8;startArrow=classic;startFill=1;exitX=0.5;exitY=0;exitDx=0;exitDy=0;" edge="1" parent="1" source="PNi4up06ztXLm7VJfdX3-1" target="PNi4up06ztXLm7VJfdX3-18">
          <mxGeometry relative="1" as="geometry" />
        </mxCell>
        <mxCell id="PNi4up06ztXLm7VJfdX3-20" value="auth" style="edgeLabel;html=1;align=center;verticalAlign=middle;resizable=0;points=[];fontSize=20;fontFamily=Architects Daughter;" vertex="1" connectable="0" parent="PNi4up06ztXLm7VJfdX3-19">
          <mxGeometry x="0.0304" y="-23" relative="1" as="geometry">
            <mxPoint x="6" y="-11" as="offset" />
          </mxGeometry>
        </mxCell>
        <mxCell id="PNi4up06ztXLm7VJfdX3-21" value="flatpak" style="rounded=1;whiteSpace=wrap;html=1;sketch=1;hachureGap=4;jiggle=2;curveFitting=1;fontFamily=Architects Daughter;fontSource=https%3A%2F%2Ffonts.googleapis.com%2Fcss%3Ffamily%3DArchitects%2BDaughter;fontSize=20;" vertex="1" parent="1">
          <mxGeometry x="117" y="190" width="120" height="60" as="geometry" />
        </mxCell>
        <mxCell id="PNi4up06ztXLm7VJfdX3-22" value="snap" style="rounded=1;whiteSpace=wrap;html=1;sketch=1;hachureGap=4;jiggle=2;curveFitting=1;fontFamily=Architects Daughter;fontSource=https%3A%2F%2Ffonts.googleapis.com%2Fcss%3Ffamily%3DArchitects%2BDaughter;fontSize=20;" vertex="1" parent="1">
          <mxGeometry x="117" y="259" width="120" height="60" as="geometry" />
        </mxCell>
      </root>
    </mxGraphModel>
  </diagram>
</mxfile>
